<svg xmlns="http://www.w3.org/2000/svg" viewBox="0 0 64 64" width="64" height="64">
  <rect width="64" height="64" rx="14" fill="#0A0A0B"/>
  <g transform="translate(-79.4,-51.9) scale(0.22)" fill="#00E5A0">
    <path d="M515.568115,362.582520 C508.133575,370.236511 500.917450,377.613556 493.765533,385.052338 C489.181366,389.820374 483.188110,390.647766 478.574371,387.021393 C474.128357,383.526886 473.448669,377.672821 477.046936,372.273529 C478.419769,370.213562 480.024475,368.260345 481.770477,366.503998 C505.613831,342.519226 529.504883,318.581879 553.372559,294.621307 C557.779053,290.197693 562.075684,288.922058 566.849365,291.090240 C571.538147,293.219879 573.052612,297.421600 573.055725,302.187622 C573.085754,348.173401 573.064575,394.159210 573.043091,440.145020 C573.040833,445.005524 571.399170,449.076782 566.651672,451.064697 C561.765503,453.110626 557.574402,451.600098 553.951294,447.953644 C547.845581,441.808594 541.679871,435.723206 535.562500,429.589661 C530.413879,424.427490 529.828491,418.800385 533.898682,414.060974 C537.666260,409.673828 543.899780,409.541290 549.576904,413.724426 C549.974487,414.017365 550.387817,414.289093 551.309998,414.928711 C551.309998,385.582886 551.309998,356.636566 551.309998,327.628723 C539.476318,339.197937 527.644958,350.764832 515.568115,362.582520 z"/>
    <path d="M440.686707,345.999939 C440.686005,338.002655 440.725647,330.505066 440.670319,323.008240 C440.636688,318.450745 442.219238,314.798828 446.454498,312.793427 C451.038849,310.622650 455.332153,311.572266 458.895386,314.997192 C465.738770,321.575012 472.548065,328.197479 479.136749,335.027863 C483.244598,339.286499 483.347168,345.341797 479.917419,349.613556 C476.761383,353.544373 470.910553,354.270050 465.822968,351.315094 C464.686890,350.655273 463.639740,349.842224 462.166626,348.837006 C462.166626,378.003662 462.166626,406.848297 462.166626,436.026215 C464.143616,435.694336 465.159363,434.137756 466.347778,432.942169 C483.492310,415.693451 500.620087,398.428070 517.736633,381.151611 C524.271545,374.555603 533.059326,374.403107 537.033630,380.858887 C540.013611,385.699493 539.107727,390.630432 534.704224,394.783142 C512.769287,415.469147 491.885773,437.211578 470.655640,458.605957 C467.019684,462.269989 463.294556,465.846130 459.586243,469.437683 C455.930756,472.978119 451.582397,474.382385 446.804016,472.440491 C442.042786,470.505585 440.659363,466.378418 440.665802,461.458130 C440.715942,423.138794 440.689667,384.819336 440.686707,345.999939 z"/>
  </g>
</svg>
