<svg xmlns="http://www.w3.org/2000/svg" viewBox="160 265 690 405" width="690" height="405" role="img" aria-label="Инвенткод" preserveAspectRatio="xMidYMid meet">
  <title>Инвенткод</title>
  <g fill="#0A0A0B">
    <path d="M515.568115,362.582520 C508.133575,370.236511 500.917450,377.613556 493.765533,385.052338 C489.181366,389.820374 483.188110,390.647766 478.574371,387.021393 C474.128357,383.526886 473.448669,377.672821 477.046936,372.273529 C478.419769,370.213562 480.024475,368.260345 481.770477,366.503998 C505.613831,342.519226 529.504883,318.581879 553.372559,294.621307 C557.779053,290.197693 562.075684,288.922058 566.849365,291.090240 C571.538147,293.219879 573.052612,297.421600 573.055725,302.187622 C573.085754,348.173401 573.064575,394.159210 573.043091,440.145020 C573.040833,445.005524 571.399170,449.076782 566.651672,451.064697 C561.765503,453.110626 557.574402,451.600098 553.951294,447.953644 C547.845581,441.808594 541.679871,435.723206 535.562500,429.589661 C530.413879,424.427490 529.828491,418.800385 533.898682,414.060974 C537.666260,409.673828 543.899780,409.541290 549.576904,413.724426 C549.974487,414.017365 550.387817,414.289093 551.309998,414.928711 C551.309998,385.582886 551.309998,356.636566 551.309998,327.628723 C539.476318,339.197937 527.644958,350.764832 515.568115,362.582520 z"/>
    <path d="M440.686707,345.999939 C440.686005,338.002655 440.725647,330.505066 440.670319,323.008240 C440.636688,318.450745 442.219238,314.798828 446.454498,312.793427 C451.038849,310.622650 455.332153,311.572266 458.895386,314.997192 C465.738770,321.575012 472.548065,328.197479 479.136749,335.027863 C483.244598,339.286499 483.347168,345.341797 479.917419,349.613556 C476.761383,353.544373 470.910553,354.270050 465.822968,351.315094 C464.686890,350.655273 463.639740,349.842224 462.166626,348.837006 C462.166626,378.003662 462.166626,406.848297 462.166626,436.026215 C464.143616,435.694336 465.159363,434.137756 466.347778,432.942169 C483.492310,415.693451 500.620087,398.428070 517.736633,381.151611 C524.271545,374.555603 533.059326,374.403107 537.033630,380.858887 C540.013611,385.699493 539.107727,390.630432 534.704224,394.783142 C512.769287,415.469147 491.885773,437.211578 470.655640,458.605957 C467.019684,462.269989 463.294556,465.846130 459.586243,469.437683 C455.930756,472.978119 451.582397,474.382385 446.804016,472.440491 C442.042786,470.505585 440.659363,466.378418 440.665802,461.458130 C440.715942,423.138794 440.689667,384.819336 440.686707,345.999939 z"/>
    <path d="M823.484802,655.379578 C821.665100,655.865662 820.189941,656.045837 818.712769,656.207336 C814.471008,656.671143 812.729614,654.854309 812.710449,650.512146 C812.678284,643.211487 812.488464,643.223755 805.274353,643.237976 C796.284302,643.255737 787.285828,643.485229 778.307495,643.163513 C773.528870,642.992371 771.844421,644.524109 772.018799,649.360046 C772.252747,655.848145 771.460327,656.141418 765.381897,656.282898 C761.120728,656.382080 759.781921,654.446228 759.904541,650.563110 C760.030640,646.571594 759.908264,642.572632 759.930725,638.577209 C759.951172,634.933472 759.336426,631.100647 764.863770,630.526367 C767.085815,630.295593 767.152710,627.500061 767.710876,625.643799 C773.073364,607.809753 778.514160,589.997498 783.638855,572.094910 C784.812134,567.995911 786.681946,566.467712 790.957703,566.674988 C797.933533,567.013123 804.939514,566.851807 811.929504,566.724426 C815.200684,566.664856 816.668030,567.520386 816.624451,571.246826 C816.410522,589.547241 816.524719,607.851257 816.416748,626.153320 C816.399170,629.133667 817.075623,631.000305 820.481567,630.962830 C822.594910,630.939575 824.746094,631.387878 824.524536,634.173035 C823.971069,641.130066 825.170044,648.140503 823.484802,655.379578 M788.956055,596.355896 C785.739014,607.483032 782.521973,618.610168 779.001648,630.786194 C787.378540,630.786194 794.931946,630.876099 802.480835,630.730530 C804.699585,630.687744 804.781799,628.662781 804.782898,626.961365 C804.791992,612.315002 804.785828,597.668579 804.765686,583.022217 C804.763611,581.520630 804.730408,580.048401 802.973877,579.279541 C798.564880,577.349670 793.749878,579.528870 792.476685,584.085999 C791.403442,587.927307 790.295654,591.759033 788.956055,596.355896 z"/>
    <path d="M348.747559,624.789734 C348.747284,610.988953 348.681183,597.657959 348.795837,584.328491 C348.824341,581.016174 348.219299,578.965637 344.301666,578.802246 C338.744110,578.570435 341.059357,574.103699 340.677063,571.202332 C340.247040,567.938538 341.999176,566.799805 345.111267,566.823975 C354.441742,566.896423 363.776367,566.680786 373.103607,566.866943 C381.620880,567.036865 388.352295,570.806641 391.878754,578.669617 C395.451721,586.636230 395.541748,594.540527 388.728271,601.275696 C388.392120,601.607910 388.228912,602.115173 387.852783,602.772217 C388.923828,603.967041 390.073822,605.135864 391.095062,606.408203 C396.695892,613.385925 397.852814,621.087036 394.556915,629.379578 C391.198669,637.829041 384.551910,642.476929 375.825623,643.023560 C365.368683,643.678528 354.840363,643.183472 344.343048,643.214233 C342.025085,643.221008 340.111938,642.554626 340.677765,639.855347 C341.307617,636.850525 338.282501,631.930115 343.763000,631.311768 C348.074890,630.825317 349.212708,629.035217 348.747559,624.789734 M381.341492,627.907471 C384.440796,624.364990 385.729218,620.491638 383.515564,615.981323 C381.239532,611.343994 377.264740,609.850586 372.402893,609.909729 C369.573822,609.944153 366.739441,609.940247 363.914734,609.803223 C361.711334,609.696411 360.361603,610.313354 360.376953,612.782166 C360.408051,617.776001 360.378723,622.770264 360.395813,627.764221 C360.400757,629.208008 360.865784,630.722717 362.463959,630.681458 C368.634064,630.521973 375.145630,632.880920 381.341492,627.907471 M360.399536,582.036011 C360.382812,583.364807 360.352295,584.693542 360.351471,586.022339 C360.343445,599.060059 361.034698,599.651978 374.105194,597.824951 C380.674927,596.906555 384.326630,589.678955 381.146271,583.888916 C378.114349,578.369141 365.302612,576.681702 360.399536,582.036011 z"/>
    <path d="M236.972687,643.240356 C231.808365,643.906616 230.527649,641.684204 230.593399,637.227417 C230.806320,622.796326 230.672913,608.360168 229.812149,593.683533 C223.786652,605.835083 217.749100,617.980652 211.743607,630.142090 C210.122971,633.423950 208.548691,636.731018 207.049072,640.069580 C206.043121,642.309265 204.459000,643.205505 201.984756,643.318115 C194.117340,643.676270 193.719864,643.402527 193.713974,635.629211 C193.701248,618.805542 193.645615,601.981445 193.750244,585.158447 C193.773560,581.409058 193.554764,578.448242 188.602341,578.867249 C186.050140,579.083191 185.214935,577.373718 185.096466,575.038574 C184.713516,567.490417 185.435898,566.677429 192.803482,566.730408 C205.349121,566.820557 205.349579,566.820557 205.350204,579.430786 C205.350815,591.709778 205.350357,603.988708 206.228271,616.495605 C213.483932,601.744934 220.716461,586.982788 228.016907,572.254272 C229.306778,569.651978 230.191849,566.809143 234.182495,566.682983 C242.100937,566.432617 242.328430,566.433899 242.330917,574.355042 C242.337555,595.509583 242.281616,616.664307 242.387650,637.818359 C242.405823,641.445251 241.599640,643.714172 236.972687,643.240356 z"/>
    <path d="M270.709717,601.000061 C270.708923,595.004150 270.599548,589.505249 270.750366,584.013428 C270.837555,580.839172 270.095581,578.890869 266.416412,578.959534 C261.027252,579.060242 262.268433,574.951111 262.126343,571.800659 C261.971527,568.368591 263.296143,566.784119 267.083557,566.694580 C282.347168,566.333801 282.343872,566.221375 282.352020,581.237366 C282.354462,585.734009 282.423004,590.231812 282.343536,594.726929 C282.295471,597.447937 283.490143,598.746826 286.193359,598.739502 C292.021454,598.723816 297.849823,598.691650 303.677612,598.735291 C306.704132,598.757874 307.714233,597.257324 307.677216,594.370300 C307.581146,586.877197 307.803131,579.378113 307.608917,571.888916 C307.506653,567.945190 309.013702,566.513306 312.901367,566.742493 C316.333313,566.944763 319.461914,566.427368 319.415741,571.687500 C319.221252,593.836121 319.235077,615.988220 319.424225,638.136963 C319.462891,642.667847 317.353363,643.253235 313.633606,643.328430 C309.578186,643.410217 307.405640,642.500977 307.588959,637.832458 C307.876251,630.515869 307.513458,623.175476 307.719574,615.853394 C307.824615,612.122925 306.402374,610.780945 302.760529,610.922546 C297.604767,611.123169 292.432922,611.137695 287.275269,610.984802 C283.669250,610.877808 282.189453,612.189514 282.290009,615.928467 C282.491425,623.417480 282.164856,630.922119 282.420044,638.407837 C282.566040,642.690125 280.437439,643.378113 276.899597,643.283386 C273.507690,643.192566 270.606964,643.288330 270.674011,638.471863 C270.845428,626.150146 270.718140,613.824219 270.709717,601.000061 z"/>
    <path d="M496.801208,643.115234 C495.002747,643.179260 493.663666,643.110291 492.338898,643.217590 C488.354156,643.540100 487.678894,641.219238 487.690948,637.907593 C487.753448,620.748474 487.646637,603.588562 487.748260,586.429810 C487.773468,582.169678 488.141815,578.361938 481.898102,578.690063 C478.927826,578.846191 479.036011,575.858643 479.164764,573.743835 C479.315216,571.273926 478.181091,568.176880 481.700409,566.934387 C482.156189,566.773499 482.687134,566.823364 483.183655,566.780457 C499.348541,565.384277 499.347656,565.384338 499.348663,581.409180 C499.348938,585.907288 499.434204,590.407104 499.331573,594.902771 C499.267944,597.691284 500.495453,598.814758 503.211823,598.785950 C509.041718,598.723999 514.873413,598.712402 520.703003,598.787292 C523.795471,598.827026 524.711914,597.258850 524.681030,594.417908 C524.599426,586.922058 524.855103,579.418091 524.599365,571.930298 C524.445679,567.431458 526.686157,566.699097 530.441345,566.736084 C534.025208,566.771423 536.444458,567.061035 536.405945,571.742981 C536.223755,593.898743 536.218384,616.057556 536.390076,638.213440 C536.425842,642.833130 534.108276,643.284912 530.474121,643.295166 C526.788635,643.305603 524.425842,642.747314 524.599365,638.153809 C524.882080,630.667847 524.539062,623.160095 524.718750,615.667664 C524.802185,612.186340 523.460083,610.849426 520.062012,610.932800 C514.733948,611.063538 509.396088,611.127808 504.071350,610.950073 C500.268341,610.823059 499.205017,612.525146 499.295319,616.076721 C499.481659,623.402100 499.396332,630.736267 499.310303,638.065491 C499.288574,639.917480 500.016449,642.252258 496.801208,643.115234 z"/>
    <path d="M708.176880,567.910339 C728.964050,559.834534 745.555054,575.436035 744.417358,592.637695 C743.836426,601.420227 744.421387,610.274231 744.280701,619.092773 C744.042664,634.010864 733.734009,644.187988 719.007385,644.232971 C704.629211,644.276978 693.977417,633.734436 693.719482,618.988770 C693.559387,609.837891 693.584167,600.680969 693.695923,591.528870 C693.824524,581.004150 698.302429,572.991821 708.176880,567.910339 M731.432617,586.327209 C727.983826,579.794006 722.635803,577.001953 715.972656,578.256104 C710.597534,579.267822 705.698975,584.619141 705.492615,590.741211 C705.173401,600.212219 705.151794,609.710510 705.483704,619.180359 C705.719666,625.912415 711.286621,631.420593 717.404419,631.893433 C724.735901,632.460083 731.318237,628.442505 732.033081,621.324219 C733.173767,609.965088 733.589844,598.475220 731.432617,586.327209 z"/>
    <path d="M628.746826,633.941650 C628.739075,617.116028 628.656799,600.782288 628.780701,584.450012 C628.808105,580.837646 628.054016,578.799683 623.904541,578.838318 C619.136292,578.882812 620.272217,575.033386 620.166626,572.225891 C620.059570,569.379150 620.437927,566.773499 624.296814,566.821228 C628.295654,566.870605 632.297119,566.875366 636.294922,566.784973 C639.307922,566.716797 640.395691,568.136292 640.359924,571.049683 C640.269836,578.381775 640.288147,585.716492 640.380554,593.048645 C640.407898,595.213684 639.499512,598.117737 642.965881,598.614563 C646.158569,599.072205 649.117676,599.155579 650.895813,595.319702 C654.397217,587.766541 658.243469,580.370422 662.052856,572.963745 C665.526611,566.209534 669.262756,564.977051 677.012268,567.820374 C677.716064,569.465271 676.591492,570.681091 675.951355,571.979065 C671.235779,581.539368 666.578430,591.130127 661.704773,600.609558 C660.090576,603.749268 660.159607,606.421387 661.792847,609.534607 C666.203125,617.941772 670.401489,626.462036 674.566223,634.994934 C675.630371,637.175110 677.276672,639.235107 676.960449,641.892944 C670.026367,645.176208 665.608398,643.792786 662.436340,637.395813 C658.661255,629.783081 654.804565,622.208740 651.173279,614.527954 C649.808777,611.641724 647.769897,610.847412 644.795227,610.909302 C641.697205,610.973816 640.245850,612.041565 640.308533,615.342957 C640.447693,622.673462 640.090027,630.020325 640.427551,637.337708 C640.644287,642.038086 638.866028,643.322449 634.388062,643.325378 C629.940063,643.328247 628.263611,641.690857 628.727417,637.432373 C628.835022,636.443970 628.745422,635.434082 628.746826,633.941650 z"/>
    <path d="M420.735291,580.013977 C420.907227,564.643799 419.025635,566.994080 433.464996,566.811035 C442.952911,566.690735 452.446686,566.923584 461.931366,566.710571 C466.093506,566.617065 467.502869,568.180969 467.404785,572.265747 C467.311218,576.163086 467.130402,579.126221 461.965332,578.983765 C453.815063,578.758911 445.650604,579.084778 437.497040,578.926392 C433.641113,578.851562 431.995117,580.212158 432.301147,584.165894 C432.544525,587.310059 432.546570,590.504211 432.295807,593.647461 C431.972748,597.696838 433.859894,598.938049 437.588654,598.831787 C442.745209,598.684814 447.915192,598.955872 453.068176,598.756897 C457.352844,598.591370 457.479248,601.219482 457.350586,604.281433 C457.223297,607.310730 458.284088,610.992859 453.160828,610.940063 C447.834564,610.885132 442.502686,611.108704 437.181213,610.947632 C433.483765,610.835754 432.335815,612.339844 432.278717,615.973083 C432.042877,630.976807 431.941650,630.975891 447.124878,630.973511 C451.952820,630.972778 456.791290,631.165527 461.605743,630.909180 C466.465851,630.650391 467.393738,633.116394 467.414795,637.338989 C467.435394,641.472229 466.392914,643.407104 461.820251,643.314331 C450.004944,643.074463 438.178864,643.081909 426.362915,643.302551 C421.933014,643.385254 420.631805,641.713989 420.668823,637.447388 C420.833496,618.469910 420.737488,599.490295 420.735291,580.013977 z"/>
    <path d="M578.000610,597.728455 C586.482056,597.719238 594.466064,597.825073 602.444092,597.653015 C606.078247,597.574768 607.666199,598.884094 607.371582,602.582886 C607.108582,605.883789 608.485107,610.052490 602.757141,609.875366 C599.933105,609.788086 597.042480,610.186890 594.293640,609.715027 C589.812439,608.945679 588.827820,610.937195 588.925232,614.886902 C589.109680,622.365234 588.782043,629.859070 589.069458,637.330994 C589.265198,642.422424 586.837463,643.317139 582.391907,643.351074 C577.808472,643.385986 576.705261,641.467957 576.822571,637.346741 C577.035400,629.870117 576.750244,622.379944 576.924133,614.901245 C577.009216,611.240112 575.604309,609.719360 571.970093,609.888916 C569.318665,610.012634 566.651794,609.758850 563.993347,609.792236 C560.108521,609.841003 558.392517,608.323853 558.575012,604.130188 C558.844971,597.925781 558.714294,597.779663 565.029297,597.747559 C569.186340,597.726440 573.343567,597.734863 578.000610,597.728455 z"/>
    <path d="M583.000000,578.976440 C576.176819,578.959656 569.847595,578.769775 563.532288,578.985291 C558.397461,579.160522 558.657166,575.936096 558.606689,572.414856 C558.557861,569.004944 558.929932,566.684692 563.329102,566.747131 C576.472046,566.933655 589.621399,566.927429 602.764221,566.730652 C607.261108,566.663330 607.482605,569.178040 607.368896,572.481995 C607.261108,575.615662 608.034302,579.062988 602.967529,578.952515 C596.481628,578.811035 589.989441,578.956665 583.000000,578.976440 z"/>
  </g>
</svg>
